<?xml version="1.0" encoding="UTF-8"?>
<svg version="1.1" xmlns="http://www.w3.org/2000/svg" width="500" height="500">
<path d="M0 0 C17.10096133 -0.0233418 34.20191612 -0.04109187 51.30288982 -0.05181217 C59.24660987 -0.05692636 67.19031971 -0.06387366 75.1340332 -0.07543945 C82.07335045 -0.08553789 89.01266031 -0.09188867 95.9519847 -0.09408849 C99.6121254 -0.09537043 103.27224498 -0.09829027 106.93237877 -0.10573006 C121.56395268 -0.13415172 136.18634816 -0.05570506 150.81176758 0.39672852 C151.97510715 0.42929969 153.13844671 0.46187086 154.33703899 0.49542904 C179.44863151 1.38364619 204.77246024 8.31778751 224 25 C224.81210937 25.59941406 225.62421875 26.19882813 226.4609375 26.81640625 C229.56202946 29.48334533 231.73957973 32.40583431 234.0625 35.75 C234.50223145 36.3797876 234.94196289 37.0095752 235.39501953 37.65844727 C238.3561099 41.95485525 241.19206992 46.07646225 243 51 C243.36867188 51.98097656 243.73734375 52.96195313 244.1171875 53.97265625 C249.72220116 71.42550913 249.54946799 93.36148015 241.09375 109.875 C239.20476481 113.34375095 237.1484668 116.68498287 235 120 C234.47019531 120.85609863 234.47019531 120.85609863 233.9296875 121.72949219 C233.00748193 123.18879711 232.00933672 124.5995453 231 126 C230.34 126 229.68 126 229 126 C228.77957031 126.56203125 228.55914062 127.1240625 228.33203125 127.703125 C219.0593634 143.69235872 193.95230361 152.68666343 177.35546875 157.1875 C172.60294419 158.33828592 167.83122507 159.25066713 163 160 C163.58265625 160.14695312 164.1653125 160.29390625 164.765625 160.4453125 C182.67495295 165.3450343 197.73216885 176.09825739 207.3515625 192.05078125 C215.04457018 205.81433764 219.54840976 220.77177609 224.0625 235.8125 C229.90127151 254.93695075 236.65101095 274.65784253 255 285 C260.53499546 287.28154856 266.11774736 288.90712246 272 290 C273.53136296 294.08363456 272.5779999 297.78702295 272 302 C263.33883235 302.06513663 254.67860393 302.06755354 246.01739502 302.01245117 C244.04009208 302.00024744 242.06276989 301.99130095 240.08544922 301.98242188 C220.22564331 301.83087814 202.93737649 301.39721262 187.375 287.6875 C174.6489043 273.28691802 168.92345647 257.21335753 164.25238037 238.8380127 C155.49601959 199.99472894 155.49601959 199.99472894 131.6875 169.5625 C122.24131015 163.99455845 113.86851328 162.74314381 103.0703125 162.39453125 C102.00433838 162.35444946 100.93836426 162.31436768 99.84008789 162.27307129 C97.22688679 162.17571674 94.6136313 162.08487161 92 162 C92.08487543 173.83219579 92.17993555 185.66426363 92.28752708 197.4962759 C92.33719152 202.9920398 92.38352082 208.48778719 92.421875 213.98364258 C92.45910912 219.3005747 92.50556499 224.61735771 92.55806351 229.93416023 C92.57640724 231.94920259 92.59158654 233.96427666 92.60334396 235.97936821 C92.6611236 245.55152945 92.81751506 255.05118129 93.89697266 264.57055664 C93.97333639 265.25612609 94.04970013 265.94169554 94.12837791 266.64803982 C94.79395189 271.84506121 96.25691148 275.57566368 99 280 C99.495 281.485 99.495 281.485 100 283 C103.05122716 284.90525935 106.47706682 285.92553254 109.875 287.0625 C110.88304687 287.40410156 111.89109375 287.74570312 112.9296875 288.09765625 C115.94701591 288.98442834 118.89036262 289.54979877 122 290 C122 293.96 122 297.92 122 302 C106.24083203 302.0231192 90.48167002 302.04097933 74.72248936 302.05181217 C67.40572598 302.05697506 60.0889733 302.06401762 52.7722168 302.07543945 C46.39716982 302.08538651 40.02213059 302.09185348 33.64707607 302.09408849 C30.26951986 302.09539557 26.89198584 302.09848119 23.51443672 302.10573006 C19.74992657 302.11293613 15.98546315 302.11399113 12.22094727 302.11352539 C11.09310318 302.11712067 9.96525909 302.12071594 8.80323792 302.12442017 C7.27400696 302.12235817 7.27400696 302.12235817 5.71388245 302.12025452 C4.82250863 302.12117631 3.93113482 302.1220981 3.01274967 302.12304783 C1 302 1 302 0 301 C-0.07226502 299.14712498 -0.0838122 297.29166122 -0.0625 295.4375 C-0.05347656 294.42558594 -0.04445313 293.41367187 -0.03515625 292.37109375 C-0.02355469 291.58863281 -0.01195313 290.80617188 0 290 C1.08539063 289.75765625 2.17078125 289.5153125 3.2890625 289.265625 C4.73452507 288.92772466 6.17982939 288.58914687 7.625 288.25 C8.33785156 288.09273438 9.05070312 287.93546875 9.78515625 287.7734375 C15.30735359 286.45621612 19.7600305 284.5498682 23.609375 280.16796875 C30.8752646 267.55219469 29.28983421 250.9680257 29.25878906 236.890625 C29.26150487 234.80440143 29.26506909 232.71817883 29.26940918 230.63195801 C29.27846534 225.00802726 29.27501707 219.38417055 29.26865101 213.76023865 C29.26355573 207.84959731 29.26829221 201.93896193 29.27142334 196.02832031 C29.27505275 186.10610832 29.27029084 176.1839262 29.26074219 166.26171875 C29.24985964 154.82197806 29.25338594 143.38230869 29.264395 131.94256973 C29.27349714 122.08648192 29.27473887 112.23041546 29.26951766 102.3743248 C29.26641402 96.50267113 29.26594417 90.63105088 29.27259064 84.75939941 C29.2784062 79.23694045 29.27429081 73.71457263 29.26280212 68.19212341 C29.26017792 66.17626598 29.26088185 64.16040075 29.26532745 62.14454651 C30.23629802 39.07490181 30.23629802 39.07490181 21 19 C14.67009678 14.32185786 7.65450421 13.07948136 0 12 C0 8.04 0 4.08 0 0 Z M92 15 C92 58.89 92 102.78 92 148 C132.31733548 148.71021116 132.31733548 148.71021116 167.265625 130.9375 C170.59776196 127.21511276 173.37296826 123.24317137 176 119 C176.4640625 118.26394531 176.928125 117.52789062 177.40625 116.76953125 C187.70996419 98.51813508 187.61597255 73.69712822 182.2578125 53.9609375 C177.74962118 39.06461595 168.65363088 28.83609634 155.5625 20.8125 C135.88738643 10.8023545 113.71310098 15 92 15 Z " fill="#6A0E32" transform="translate(114,99)"/>
<path d="M0 0 C0 0.66 0 1.32 0 2 C0.99 2.33 1.98 2.66 3 3 C-7.89 3.495 -7.89 3.495 -19 4 C-19.02260178 17.43902042 -19.04094455 30.8780282 -19.05181217 44.31706333 C-19.05702835 50.55749277 -19.06410307 56.79790852 -19.07543945 63.03833008 C-19.08631322 69.06186495 -19.09228638 75.08538666 -19.09487724 81.10893059 C-19.09672339 83.40579371 -19.10032842 85.70265612 -19.10573006 87.99951363 C-19.11300002 91.21917395 -19.11398842 94.43878004 -19.11352539 97.65844727 C-19.11712067 98.60575714 -19.12071594 99.55306702 -19.12442017 100.52908325 C-19.11675383 105.46291526 -18.84012953 110.13610178 -18 115 C-24.91512506 108.08487494 -23.10475054 89.41015995 -23.14797401 80.15233803 C-23.12611795 75.78042767 -23.0567887 71.41023564 -22.9765625 67.0390625 C-22.95028269 65.14237811 -22.92502555 63.24567931 -22.90072632 61.34896851 C-22.83517574 56.44013707 -22.75606692 51.53162223 -22.67376709 46.62304688 C-22.59174926 41.58084951 -22.52305993 36.53847061 -22.453125 31.49609375 C-22.31485475 21.66384548 -22.16220731 11.83188055 -22 2 C-18.54980812 0.27490406 -14.64331314 0.98870837 -10.84765625 1.0625 C-7.07865441 0.97977842 -3.84646146 -0.10395842 0 0 Z " fill="#530B26" transform="translate(225,257)"/>
<path d="M0 0 C43.23 0 86.46 0 131 0 C131 0.33 131 0.66 131 1 C103.86024101 1.89539027 76.75046091 2.13127105 49.59729004 2.06866455 C44.54012495 2.05817595 39.48295422 2.05381406 34.42578125 2.04882812 C24.61717359 2.03830904 14.80858958 2.0213941 5 2 C5 2.66 5 3.32 5 4 C4.67 4.33 4.34 4.66 4 5 C6.61514317 7.12038635 9.19637616 9.13091744 12 11 C10.56208484 10.85831863 9.1246763 10.71148957 7.6875 10.5625 C6.88699219 10.48128906 6.08648437 10.40007812 5.26171875 10.31640625 C3 10 3 10 0 9 C0 6.03 0 3.06 0 0 Z " fill="#500321" transform="translate(115,100)"/>
<path d="M0 0 C0.33 0 0.66 0 1 0 C0.98952637 1.06959961 0.97905273 2.13919922 0.96826172 3.24121094 C0.93202594 7.2144841 0.9090865 11.18774269 0.89013672 15.16113281 C0.8800873 16.87990781 0.86644555 18.59866575 0.84912109 20.31738281 C0.82482609 22.78975641 0.81350632 25.26190369 0.8046875 27.734375 C0.79436493 28.50118591 0.78404236 29.26799683 0.77340698 30.05804443 C0.77260988 33.85956767 0.85490428 36.77864518 3 40 C-2.75 45 -2.75 45 -5 45 C-5.33 45.99 -5.66 46.98 -6 48 C-7 46 -7 46 -6.29296875 43.3125 C-5.92816406 42.219375 -5.56335938 41.12625 -5.1875 40 C-1.95240444 30.28303428 -0.68675696 21.08504046 -0.375 10.875 C-0.31699219 9.2971875 -0.31699219 9.2971875 -0.2578125 7.6875 C-0.16463659 5.12516244 -0.07882618 2.56281221 0 0 Z " fill="#87495F" transform="translate(299,167)"/>
<path d="M0 0 C14.19 0 28.38 0 43 0 C43 0.33 43 0.66 43 1 C30.13 1 17.26 1 4 1 C4 1.66 4 2.32 4 3 C3.67 3.33 3.34 3.66 3 4 C5.61514317 6.12038635 8.19637616 8.13091744 11 10 C9.54119891 9.85892253 8.08296449 9.71197585 6.625 9.5625 C5.40683594 9.44068359 5.40683594 9.44068359 4.1640625 9.31640625 C2 9 2 9 0 8 C0 5.36 0 2.72 0 0 Z " fill="#5E0728" transform="translate(116,101)"/>
<path d="M0 0 C0.99 0.495 0.99 0.495 2 1 C2.33 8.92 2.66 16.84 3 25 C3.66 25.33 4.32 25.66 5 26 C4.43179252 31.45479185 3.05362055 35.91059256 1 41 C0.67 41 0.34 41 0 41 C0 27.47 0 13.94 0 0 Z " fill="#5B0623" transform="translate(299,159)"/>
<path d="M0 0 C2.31 0.66 4.62 1.32 7 2 C7.5534764 4.07553648 8 5.84365964 8 8 C8.66 8 9.32 8 10 8 C10 8.66 10 9.32 10 10 C10.66 10 11.32 10 12 10 C12.36109542 11.64432706 12.71370076 13.2905208 13.0625 14.9375 C13.25972656 15.85402344 13.45695313 16.77054688 13.66015625 17.71484375 C13.77230469 18.46894531 13.88445312 19.22304687 14 20 C13.67 20.33 13.34 20.66 13 21 C12.63239269 23.32817964 12.29758419 25.6618385 12 28 C11.67 28 11.34 28 11 28 C10.88785156 26.54980469 10.88785156 26.54980469 10.7734375 25.0703125 C9.75601518 14.99583657 7.64149473 7.20809652 0 0 Z " fill="#8E566A" transform="translate(132,115)"/>
<path d="M0 0 C0 2.33333333 0 4.66666667 0 7 C-0.5775 7.2475 -1.155 7.495 -1.75 7.75 C-4.11685509 8.90000299 -4.11685509 8.90000299 -5.8125 11.0625 C-8.73679717 13.65259178 -11.17982042 13.70614003 -15 14 C-12.0202619 10.85790438 -8.61998658 8.39689 -5.15625 5.81640625 C-3.04548759 4.03831835 -1.55531661 2.26817006 0 0 Z " fill="#8F576E" transform="translate(285,224)"/>
<path d="M0 0 C4.54075781 4.14010271 7.71842138 8.82390176 11 14 C10.67 14.66 10.34 15.32 10 16 C9.34 16 8.68 16 8 16 C8 15.01 8 14.02 8 13 C7.34 13 6.68 13 6 13 C6 12.01 6 11.02 6 10 C5.34 10 4.68 10 4 10 C3.34 8.02 2.68 6.04 2 4 C1.34 4 0.68 4 0 4 C0 2.68 0 1.36 0 0 Z " fill="#824A5C" transform="translate(343,130)"/>
<path d="M0 0 C6.93 0 13.86 0 21 0 C20.67 0.99 20.34 1.98 20 3 C13.4 2.67 6.8 2.34 0 2 C0 1.34 0 0.68 0 0 Z " fill="#550F29" transform="translate(249,100)"/>
<path d="M0 0 C0.66 0.66 1.32 1.32 2 2 C1.34 3.32 0.68 4.64 0 6 C0.61875 6.0825 1.2375 6.165 1.875 6.25 C4 7 4 7 5.25 8.75 C6.0957901 11.28737029 6.14764761 13.34234296 6 16 C2.28919117 11.57557408 -0.84577733 6.82596069 -4 2 C-2.68 1.34 -1.36 0.68 0 0 Z " fill="#7F3D51" transform="translate(287,128)"/>
<path d="M0 0 C0.99 0 1.98 0 3 0 C3.268125 0.639375 3.53625 1.27875 3.8125 1.9375 C4.88667752 4.33131686 4.88667752 4.33131686 8 5 C8.33 4.34 8.66 3.68 9 3 C9.66 3.33 10.32 3.66 11 4 C11 4.99 11 5.98 11 7 C11.66 7.33 12.32 7.66 13 8 C6.83543922 7.61471495 3.01372252 5.52913975 -2 2 C-1.34 1.34 -0.68 0.68 0 0 Z " fill="#83435E" transform="translate(309,389)"/>
<path d="M0 0 C0.53882813 0.28746094 1.07765625 0.57492187 1.6328125 0.87109375 C4.32886656 2.1568357 7.04246685 3.11471855 9.875 4.0625 C11.38707031 4.57490234 11.38707031 4.57490234 12.9296875 5.09765625 C15.94701591 5.98442834 18.89036262 6.54979877 22 7 C22 7.33 22 7.66 22 8 C19.77011716 7.91249445 17.54103995 7.80430939 15.3125 7.6875 C14.07113281 7.62949219 12.82976562 7.57148438 11.55078125 7.51171875 C7.89801884 6.98530305 5.9862692 6.09038844 3 4 C1.67391178 3.31903578 0.34313399 2.64669414 -1 2 C-0.67 1.34 -0.34 0.68 0 0 Z " fill="#8E5C6D" transform="translate(214,382)"/>
<path d="M0 0 C4.75 0.75 4.75 0.75 7 3 C9.06874034 3.6425235 9.06874034 3.6425235 11 4 C10.34 5.32 9.68 6.64 9 8 C6.03 7.505 6.03 7.505 3 7 C3 6.01 3 5.02 3 4 C2.67 3.34 2.34 2.68 2 2 C1.34 2 0.68 2 0 2 C0 1.34 0 0.68 0 0 Z " fill="#5A0827" transform="translate(310,110)"/>
<path d="M0 0 C0.33 0 0.66 0 1 0 C1.36202307 7.36113576 1.36202307 7.36113576 -0.0625 9.875 C-2.89230388 11.51811193 -5.83828293 12.22448449 -9 13 C-8.60167969 12.56429688 -8.20335937 12.12859375 -7.79296875 11.6796875 C-4.51063169 7.99005314 -2.00600254 4.56922802 0 0 Z " fill="#834C61" transform="translate(141,372)"/>
<path d="M0 0 C1.21940083 3.6582025 0.63709904 4.58448676 -0.8125 8.0625 C-1.16957031 8.94035156 -1.52664063 9.81820312 -1.89453125 10.72265625 C-3 13 -3 13 -5 15 C-5 12.36 -5 9.72 -5 7 C-4.34 7 -3.68 7 -3 7 C-2.87625 6.030625 -2.7525 5.06125 -2.625 4.0625 C-2.41875 3.051875 -2.2125 2.04125 -2 1 C-1.34 0.67 -0.68 0.34 0 0 Z " fill="#794559" transform="translate(357,198)"/>
<path d="M0 0 C1.9375 0.3125 1.9375 0.3125 4 1 C4.33 1.99 4.66 2.98 5 4 C5.66 4.33 6.32 4.66 7 5 C7.625 7.5625 7.625 7.5625 8 10 C8.66 10 9.32 10 10 10 C10 10.99 10 11.98 10 13 C10.66 13.33 11.32 13.66 12 14 C11.34 14.66 10.68 15.32 10 16 C8.89500435 14.27136297 7.79104086 12.54206612 6.6875 10.8125 C6.07261719 9.84957031 5.45773437 8.88664062 4.82421875 7.89453125 C3.17876897 5.28365697 1.57630335 2.6530398 0 0 Z " fill="#935D71" transform="translate(253,274)"/>
<path d="M0 0 C2.31 0 4.62 0 7 0 C6.360625 0.556875 5.72125 1.11375 5.0625 1.6875 C2.80319013 4.22066561 2.36850953 5.68341424 2 9 C2.99 9.33 3.98 9.66 5 10 C3.35 10 1.7 10 0 10 C0 6.7 0 3.4 0 0 Z " fill="#58152E" transform="translate(114,390)"/>
<path d="M0 0 C2.01635978 3.02453967 3.03246502 5.63075348 4.1875 9.0625 C4.55230469 10.12597656 4.91710937 11.18945312 5.29296875 12.28515625 C6 15 6 15 5 17 C2 15 2 15 1.26953125 12.5390625 C1.11871094 11.57742188 0.96789062 10.61578125 0.8125 9.625 C0.65394531 8.66851562 0.49539063 7.71203125 0.33203125 6.7265625 C0 4 0 4 0 0 Z " fill="#8E5F6E" transform="translate(338,338)"/>
<path d="M0 0 C4 0 4 0 6.25 2 C6.8275 2.66 7.405 3.32 8 4 C8.33 3.34 8.66 2.68 9 2 C9.99 2 10.98 2 12 2 C12.33 2.99 12.66 3.98 13 5 C12.01 5.33 11.02 5.66 10 6 C9.67 6.66 9.34 7.32 9 8 C7.49712782 6.85793642 5.99776716 5.71125043 4.5 4.5625 C3.6646875 3.92441406 2.829375 3.28632813 1.96875 2.62890625 C1.3190625 2.09136719 0.669375 1.55382812 0 1 C0 0.67 0 0.34 0 0 Z " fill="#7D3B57" transform="translate(243,266)"/>
<path d="M0 0 C0.33 0 0.66 0 1 0 C1.33 1.65 1.66 3.3 2 5 C2.33 5 2.66 5 3 5 C2.67 7.97 2.34 10.94 2 14 C1.01 14.33 0.02 14.66 -1 15 C-0.67 10.05 -0.34 5.1 0 0 Z " fill="#8C5369" transform="translate(143,357)"/>
<path d="M0 0 C0.99 0 1.98 0 3 0 C1.54955729 4.10958767 -0.51110752 7.43258745 -3 11 C-3.66 10.34 -4.32 9.68 -5 9 C-5 8.01 -5 7.02 -5 6 C-4.34 6 -3.68 6 -3 6 C-2.67 5.01 -2.34 4.02 -2 3 C-1.34 3 -0.68 3 0 3 C0 2.01 0 1.02 0 0 Z " fill="#743F53" transform="translate(348,214)"/>
<path d="M0 0 C0.66 0 1.32 0 2 0 C1.67 0.99 1.34 1.98 1 3 C-6.92 3 -14.84 3 -23 3 C-23 2.67 -23 2.34 -23 2 C-22.00818726 1.96241577 -22.00818726 1.96241577 -20.99633789 1.92407227 C-18.01817695 1.80846898 -15.0403608 1.68558246 -12.0625 1.5625 C-10.50112305 1.50352539 -10.50112305 1.50352539 -8.90820312 1.44335938 C-7.42416992 1.38051758 -7.42416992 1.38051758 -5.91015625 1.31640625 C-4.53549194 1.26141968 -4.53549194 1.26141968 -3.13305664 1.20532227 C-1.0179272 1.22996136 -1.0179272 1.22996136 0 0 Z " fill="#680423" transform="translate(247,99)"/>
<path d="M0 0 C4.95 1.65 9.9 3.3 15 5 C15 5.33 15 5.66 15 6 C8.25 7.125 8.25 7.125 6 6 C6 5.34 6 4.68 6 4 C4.02 3.34 2.04 2.68 0 2 C0 1.34 0 0.68 0 0 Z " fill="#8C5E6E" transform="translate(366,383)"/>
<path d="M0 0 C4.97963801 4.81900452 4.97963801 4.81900452 5.0625 9.625 C5.041875 10.73875 5.02125 11.8525 5 13 C1.42988974 9.267612 0.89086558 4.9050011 0 0 Z " fill="#8E5060" transform="translate(284,354)"/>
<path d="M0 0 C0.33 0.66 0.66 1.32 1 2 C1.66 2.33 2.32 2.66 3 3 C-2.17578125 6.22265625 -2.17578125 6.22265625 -4 7 C-4.99 6.67 -5.98 6.34 -7 6 C-7 5.01 -7 4.02 -7 3 C-5.5459375 2.814375 -5.5459375 2.814375 -4.0625 2.625 C-2.5465625 2.315625 -2.5465625 2.315625 -1 2 C-0.67 1.34 -0.34 0.68 0 0 Z " fill="#874763" transform="translate(320,240)"/>
<path d="M0 0 C4.61513112 1.31860889 8.09897612 3.21355437 12 6 C10.68 6.33 9.36 6.66 8 7 C8 6.34 8 5.68 8 5 C5.69 4.67 3.38 4.34 1 4 C0.67 2.68 0.34 1.36 0 0 Z " fill="#875E6D" transform="translate(320,113)"/>
<path d="M0 0 C0 0.33 0 0.66 0 1 C-2.08185451 1.22262606 -4.16560426 1.42757926 -6.25 1.625 C-7.41015625 1.74101563 -8.5703125 1.85703125 -9.765625 1.9765625 C-12.93872091 1.99955595 -14.38317244 1.69705154 -17 0 C-11.41615387 -1.86128204 -5.68852856 -1.13770571 0 0 Z " fill="#9B6779" transform="translate(284,101)"/>
<path d="M0 0 C0.66 0 1.32 0 2 0 C2.33 0.66 2.66 1.32 3 2 C3.99 2 4.98 2 6 2 C5.01 2.495 5.01 2.495 4 3 C3.53248212 5.35599235 3.53248212 5.35599235 3.375 8.0625 C3.30023438 8.98160156 3.22546875 9.90070313 3.1484375 10.84765625 C3.09945313 11.55792969 3.05046875 12.26820313 3 13 C2.67 13 2.34 13 2 13 C1.34 8.71 0.68 4.42 0 0 Z " fill="#9D6476" transform="translate(296,154)"/>
<path d="M0 0 C1.65 0.33 3.3 0.66 5 1 C2.11912454 3.40072955 -0.56404834 5.47291037 -4 7 C-3.6875 5.0625 -3.6875 5.0625 -3 3 C-2.01 2.67 -1.02 2.34 0 2 C0 1.34 0 0.68 0 0 Z " fill="#834A60" transform="translate(327,235)"/>
<path d="M0 0 C-0.34879632 3.25543229 -1.02133261 4.01873107 -3.5625 6.25 C-4.366875 6.8275 -5.17125 7.405 -6 8 C-6.33 7.01 -6.66 6.02 -7 5 C-2.25 0 -2.25 0 0 0 Z " fill="#885266" transform="translate(343,224)"/>
<path d="M0 0 C0 0.99 0 1.98 0 3 C-3.08888522 5.05925681 -3.70935927 5.2390374 -7.1875 5.125 C-9.0746875 5.063125 -9.0746875 5.063125 -11 5 C-7.41247258 3.13448574 -3.72187807 1.57464072 0 0 Z " fill="#550825" transform="translate(265,241)"/>
<path d="M0 0 C0.66 0.33 1.32 0.66 2 1 C1.67 2.32 1.34 3.64 1 5 C-0.32 5.33 -1.64 5.66 -3 6 C-3.66 5.01 -4.32 4.02 -5 3 C-2.625 1.4375 -2.625 1.4375 0 0 Z " fill="#620828" transform="translate(310,384)"/>
<path d="M0 0 C0.33 0.99 0.66 1.98 1 3 C-2.44450737 5.29633824 -4.93812283 5.54016485 -9 6 C-6.45543849 3.03134491 -3.51005335 1.6380249 0 0 Z " fill="#763A4F" transform="translate(279,232)"/>
<path d="M0 0 C0.99 0.33 1.98 0.66 3 1 C3 4.63 3 8.26 3 12 C0.97649676 8.96474514 0.67875982 7.80573798 0.375 4.3125 C0.30023438 3.50425781 0.22546875 2.69601562 0.1484375 1.86328125 C0.09945313 1.24839844 0.05046875 0.63351562 0 0 Z " fill="#8C5069" transform="translate(278,332)"/>
<path d="M0 0 C3.26460973 1.80412643 4.88929795 2.83394693 7 6 C4.36 5.67 1.72 5.34 -1 5 C-1 3 -1 3 0 2 C0 1.34 0 0.68 0 0 Z " fill="#7C415B" transform="translate(332,120)"/>
<path d="M0 0 C-0.75 2.4375 -0.75 2.4375 -2 5 C-4.125 5.8125 -4.125 5.8125 -6 6 C-6 5.01 -6 4.02 -6 3 C-2.66666667 0 -2.66666667 0 0 0 Z " fill="#580C26" transform="translate(137,383)"/>
<path d="M0 0 C2.78633115 4.17949673 4 6.93375326 4 12 C3.34 12 2.68 12 2 12 C0.40861915 7.82262526 -0.21278058 4.46839215 0 0 Z " fill="#560924" transform="translate(281,338)"/>
<path d="M0 0 C0 0.66 0 1.32 0 2 C0.99 2.33 1.98 2.66 3 3 C1.741875 3.04125 0.48375 3.0825 -0.8125 3.125 C-1.52019531 3.14820313 -2.22789062 3.17140625 -2.95703125 3.1953125 C-5 3 -5 3 -8 1 C-5.07175348 0.02391783 -3.04386724 -0.08226668 0 0 Z " fill="#5A0524" transform="translate(225,257)"/>
<path d="M0 0 C0.99 0 1.98 0 3 0 C3 0.66 3 1.32 3 2 C3.66 2.33 4.32 2.66 5 3 C4 4 4 4 0.9375 4.0625 C-0.5165625 4.0315625 -0.5165625 4.0315625 -2 4 C-1.34 2.68 -0.68 1.36 0 0 Z " fill="#60092A" transform="translate(309,243)"/>
<path d="M0 0 C0.66 1.65 1.32 3.3 2 5 C-0.02045442 4.39816251 -2.02111039 3.72693904 -4 3 C-4.33 2.34 -4.66 1.68 -5 1 C-3 0 -3 0 0 0 Z " fill="#773950" transform="translate(312,389)"/>
<path d="M0 0 C1.32 0.99 2.64 1.98 4 3 C3.67 4.32 3.34 5.64 3 7 C1.35 5.35 -0.3 3.7 -2 2 C-1.34 2 -0.68 2 0 2 C0 1.34 0 0.68 0 0 Z " fill="#550D28" transform="translate(317,289)"/>
<path d="M0 0 C2.88575819 0.39803561 3.82189513 0.79009069 5.75 3.0625 C6.1625 3.701875 6.575 4.34125 7 5 C6.67 5.66 6.34 6.32 6 7 C3.00675737 5.9024777 2.15389099 5.32317108 0.75 2.375 C0.5025 1.59125 0.255 0.8075 0 0 Z " fill="#814D60" transform="translate(314,285)"/>
<path d="M0 0 C3.3 0 6.6 0 10 0 C7.50494038 2.49505962 6.32671112 2.35948376 2.875 2.625 C1.96492188 2.69976562 1.05484375 2.77453125 0.1171875 2.8515625 C-0.93082031 2.92503906 -0.93082031 2.92503906 -2 3 C-1.34 2.67 -0.68 2.34 0 2 C0 1.34 0 0.68 0 0 Z " fill="#966578" transform="translate(284,254)"/>
<path d="M0 0 C1 3 1 3 1 5 C0.34 5 -0.32 5 -1 5 C-1 5.66 -1 6.32 -1 7 C-1.66 7 -2.32 7 -3 7 C-3 7.66 -3 8.32 -3 9 C-3.66 9 -4.32 9 -5 9 C-3.50163895 5.88801935 -1.80066242 2.9465385 0 0 Z " fill="#8F5F71" transform="translate(291,215)"/>
<path d="M0 0 C0 1.32 0 2.64 0 4 C-1.32 4 -2.64 4 -4 4 C-4 4.99 -4 5.98 -4 7 C-4.66 6.67 -5.32 6.34 -6 6 C-3.84615385 0 -3.84615385 0 0 0 Z " fill="#5C102F" transform="translate(352,210)"/>
<path d="M0 0 C0.66 0 1.32 0 2 0 C2.33 2.64 2.66 5.28 3 8 C2.01 8 1.02 8 0 8 C0 5.36 0 2.72 0 0 Z " fill="#62102B" transform="translate(144,136)"/>
<path d="M0 0 C2.76223278 2.76223278 2.57856291 5.20706617 3 9 C2.01 8.67 1.02 8.34 0 8 C0 5.36 0 2.72 0 0 Z " fill="#956677" transform="translate(333,323)"/>
<path d="M0 0 C0.99 0.33 1.98 0.66 3 1 C3.33 2.98 3.66 4.96 4 7 C3.01 6.67 2.02 6.34 1 6 C1 5.01 1 4.02 1 3 C0.34 2.67 -0.32 2.34 -1 2 C-0.67 1.34 -0.34 0.68 0 0 Z " fill="#600424" transform="translate(256,272)"/>
<path d="M0 0 C2.64 0 5.28 0 8 0 C5.23776722 2.76223278 2.79293383 2.57856291 -1 3 C-0.67 2.01 -0.34 1.02 0 0 Z " fill="#96637A" transform="translate(296,251)"/>
<path d="M0 0 C0.99 0 1.98 0 3 0 C3.66 0.99 4.32 1.98 5 3 C4.34 4.32 3.68 5.64 3 7 C3 6.34 3 5.68 3 5 C2.34 5 1.68 5 1 5 C0.67 3.35 0.34 1.7 0 0 Z " fill="#5C0825" transform="translate(290,367)"/>
<path d="M0 0 C1.9375 0.6875 1.9375 0.6875 4 2 C4.75 4.625 4.75 4.625 5 7 C3.0625 6.3125 3.0625 6.3125 1 5 C0.25 2.375 0.25 2.375 0 0 Z " fill="#752E47" transform="translate(333,331)"/>
<path d="M0 0 C0.93423645 3.01031744 1.04449911 3.86650268 0 7 C-0.66 7 -1.32 7 -2 7 C-2.33 5.35 -2.66 3.7 -3 2 C-2.01 1.34 -1.02 0.68 0 0 Z " fill="#5D0B2B" transform="translate(269,290)"/>
<path d="M0 0 C2.475 0.495 2.475 0.495 5 1 C5.33 2.32 5.66 3.64 6 5 C4.125 4.75 4.125 4.75 2 4 C0.75 1.9375 0.75 1.9375 0 0 Z " fill="#6B3045" transform="translate(269,118)"/>
</svg>
